# MagicaVoxel @ Ephtracy

# group
o 

# material
mtllib New-World Project-51.mtl
usemtl palette

# normals
vn 1 0 0
vn -1 0 0
vn 0 0 -1
vn 0 0 1
vn 0 -1 0
vn 0 1 0

# texcoords
vt 0.533203 0.5
vt 0.673828 0.5

# verts
v -11.6 0.3 6.7
v -11.6 0.3 8.9
v -11.6 0.5 6.9
v -11.6 0.5 8.7
v -11.6 1.1 6.6
v -11.6 1.1 6.7
v -11.6 1.1 6.9
v -11.6 1.1 8.7
v -11.6 1.1 8.9
v -11.6 1.1 9
v -11.6 1.3 6.8
v -11.6 1.3 8.8
v -11.6 1.6 6.6
v -11.6 1.6 6.8
v -11.6 1.6 8.8
v -11.6 1.6 9
v -11.7 0.5 6.9
v -11.7 0.5 8.7
v -11.7 1.1 6.9
v -11.7 1.1 8.7
v -11.7 1.3 6.8
v -11.7 1.3 8.8
v -11.7 1.5 6.8
v -11.7 1.5 8.8
v -12.8 0.5 6.7
v -12.8 0.5 6.8
v -12.8 0.5 8.8
v -12.8 0.5 8.9
v -12.8 1.1 6.7
v -12.8 1.1 6.8
v -12.8 1.1 8.8
v -12.8 1.1 8.9
v -12.8 1.3 6.6
v -12.8 1.3 6.7
v -12.8 1.3 8.9
v -12.8 1.3 9
v -12.8 1.5 6.6
v -12.8 1.5 6.7
v -12.8 1.5 8.9
v -12.8 1.5 9
v -11.8 0.5 6.7
v -11.8 0.5 6.8
v -11.8 0.5 8.8
v -11.8 0.5 8.9
v -11.8 1.1 6.7
v -11.8 1.1 6.8
v -11.8 1.1 8.8
v -11.8 1.1 8.9
v -11.8 1.3 6.6
v -11.8 1.3 6.7
v -11.8 1.3 8.9
v -11.8 1.3 9
v -11.8 1.5 6.6
v -11.8 1.5 6.7
v -11.8 1.5 8.9
v -11.8 1.5 9
v -12.9 0.5 6.9
v -12.9 0.5 8.7
v -12.9 1 7.6
v -12.9 1 8
v -12.9 1.1 6.9
v -12.9 1.1 7.6
v -12.9 1.1 7.7
v -12.9 1.1 7.9
v -12.9 1.1 8
v -12.9 1.1 8.7
v -12.9 1.3 6.8
v -12.9 1.3 7.6
v -12.9 1.3 7.7
v -12.9 1.3 7.9
v -12.9 1.3 8
v -12.9 1.3 8.8
v -12.9 1.4 7.6
v -12.9 1.4 8
v -12.9 1.5 6.8
v -12.9 1.5 8.8
v -13 0.3 6.7
v -13 0.3 8.9
v -13 0.5 6.9
v -13 0.5 8.7
v -13 1 7.6
v -13 1 8
v -13 1.1 6.6
v -13 1.1 6.7
v -13 1.1 6.9
v -13 1.1 7.6
v -13 1.1 7.7
v -13 1.1 7.9
v -13 1.1 8
v -13 1.1 8.7
v -13 1.1 8.9
v -13 1.1 9
v -13 1.3 6.8
v -13 1.3 7.6
v -13 1.3 7.7
v -13 1.3 7.9
v -13 1.3 8
v -13 1.3 8.8
v -13 1.4 7.6
v -13 1.4 8
v -13 1.6 6.6
v -13 1.6 6.8
v -13 1.6 8.8
v -13 1.6 9
v -11.6 1.1 6.6
v -11.6 1.6 6.6
v -11.8 1.3 6.6
v -11.8 1.5 6.6
v -12.8 1.3 6.6
v -12.8 1.5 6.6
v -13 1.1 6.6
v -13 1.6 6.6
v -11.6 0.3 6.7
v -11.6 1.1 6.7
v -11.8 0.5 6.7
v -11.8 1.1 6.7
v -11.8 1.3 6.7
v -11.8 1.5 6.7
v -12.8 0.5 6.7
v -12.8 1.1 6.7
v -12.8 1.3 6.7
v -12.8 1.5 6.7
v -13 0.3 6.7
v -13 1.1 6.7
v -11.8 0.5 6.8
v -11.8 1.1 6.8
v -12.8 0.5 6.8
v -12.8 1.1 6.8
v -12.9 1 7.6
v -12.9 1.1 7.6
v -12.9 1.3 7.6
v -12.9 1.4 7.6
v -13 1 7.6
v -13 1.1 7.6
v -13 1.3 7.6
v -13 1.4 7.6
v -12.9 1.1 7.9
v -12.9 1.3 7.9
v -13 1.1 7.9
v -13 1.3 7.9
v -11.6 0.5 8.7
v -11.6 1.1 8.7
v -11.7 0.5 8.7
v -11.7 1.1 8.7
v -12.9 0.5 8.7
v -12.9 1.1 8.7
v -13 0.5 8.7
v -13 1.1 8.7
v -11.6 1.3 8.8
v -11.6 1.6 8.8
v -11.7 1.3 8.8
v -11.7 1.5 8.8
v -12.9 1.3 8.8
v -12.9 1.5 8.8
v -13 1.3 8.8
v -13 1.6 8.8
v -11.6 1.3 6.8
v -11.6 1.6 6.8
v -11.7 1.3 6.8
v -11.7 1.5 6.8
v -12.9 1.3 6.8
v -12.9 1.5 6.8
v -13 1.3 6.8
v -13 1.6 6.8
v -11.6 0.5 6.9
v -11.6 1.1 6.9
v -11.7 0.5 6.9
v -11.7 1.1 6.9
v -12.9 0.5 6.9
v -12.9 1.1 6.9
v -13 0.5 6.9
v -13 1.1 6.9
v -12.9 1.1 7.7
v -12.9 1.3 7.7
v -13 1.1 7.7
v -13 1.3 7.7
v -12.9 1 8
v -12.9 1.1 8
v -12.9 1.3 8
v -12.9 1.4 8
v -13 1 8
v -13 1.1 8
v -13 1.3 8
v -13 1.4 8
v -11.8 0.5 8.8
v -11.8 1.1 8.8
v -12.8 0.5 8.8
v -12.8 1.1 8.8
v -11.6 0.3 8.9
v -11.6 1.1 8.9
v -11.8 0.5 8.9
v -11.8 1.1 8.9
v -11.8 1.3 8.9
v -11.8 1.5 8.9
v -12.8 0.5 8.9
v -12.8 1.1 8.9
v -12.8 1.3 8.9
v -12.8 1.5 8.9
v -13 0.3 8.9
v -13 1.1 8.9
v -11.6 1.1 9
v -11.6 1.6 9
v -11.8 1.3 9
v -11.8 1.5 9
v -12.8 1.3 9
v -12.8 1.5 9
v -13 1.1 9
v -13 1.6 9
v -11.6 0.3 6.7
v -13 0.3 6.7
v -11.7 0.3 6.8
v -12.9 0.3 6.8
v -11.7 0.3 8.8
v -12.9 0.3 8.8
v -11.6 0.3 8.9
v -13 0.3 8.9
v -12.9 1 7.6
v -13 1 7.6
v -12.9 1 8
v -13 1 8
v -11.6 1.1 6.6
v -13 1.1 6.6
v -11.6 1.1 6.7
v -11.8 1.1 6.7
v -12.8 1.1 6.7
v -13 1.1 6.7
v -11.8 1.1 6.8
v -12.8 1.1 6.8
v -11.6 1.1 6.9
v -11.7 1.1 6.9
v -12.9 1.1 6.9
v -13 1.1 6.9
v -12.9 1.1 7.6
v -13 1.1 7.6
v -12.9 1.1 8
v -13 1.1 8
v -11.6 1.1 8.7
v -11.7 1.1 8.7
v -12.9 1.1 8.7
v -13 1.1 8.7
v -11.8 1.1 8.8
v -12.8 1.1 8.8
v -11.6 1.1 8.9
v -11.8 1.1 8.9
v -12.8 1.1 8.9
v -13 1.1 8.9
v -11.6 1.1 9
v -13 1.1 9
v -12.9 1.3 7.7
v -13 1.3 7.7
v -12.9 1.3 7.9
v -13 1.3 7.9
v -11.8 1.5 6.6
v -12.8 1.5 6.6
v -11.8 1.5 6.7
v -12.8 1.5 6.7
v -11.8 1.5 8.9
v -12.8 1.5 8.9
v -11.8 1.5 9
v -12.8 1.5 9
v -11.8 0.5 6.7
v -12.8 0.5 6.7
v -11.8 0.5 6.8
v -12.8 0.5 6.8
v -11.6 0.5 6.9
v -11.7 0.5 6.9
v -12.9 0.5 6.9
v -13 0.5 6.9
v -11.6 0.5 8.7
v -11.7 0.5 8.7
v -12.9 0.5 8.7
v -13 0.5 8.7
v -11.8 0.5 8.8
v -12.8 0.5 8.8
v -11.8 0.5 8.9
v -12.8 0.5 8.9
v -12.9 1.1 7.7
v -13 1.1 7.7
v -12.9 1.1 7.9
v -13 1.1 7.9
v -11.8 1.3 6.6
v -12.8 1.3 6.6
v -11.8 1.3 6.7
v -12.8 1.3 6.7
v -11.6 1.3 6.8
v -11.7 1.3 6.8
v -12.9 1.3 6.8
v -13 1.3 6.8
v -12.9 1.3 7.6
v -13 1.3 7.6
v -12.9 1.3 8
v -13 1.3 8
v -11.6 1.3 8.8
v -11.7 1.3 8.8
v -12.9 1.3 8.8
v -13 1.3 8.8
v -11.8 1.3 8.9
v -12.8 1.3 8.9
v -11.8 1.3 9
v -12.8 1.3 9
v -12.9 1.4 7.6
v -13 1.4 7.6
v -12.9 1.4 8
v -13 1.4 8
v -11.7 1.5 6.8
v -12.9 1.5 6.8
v -11.7 1.5 8.8
v -12.9 1.5 8.8
v -11.6 1.6 6.6
v -13 1.6 6.6
v -11.6 1.6 6.8
v -13 1.6 6.8
v -11.6 1.6 8.8
v -13 1.6 8.8
v -11.6 1.6 9
v -13 1.6 9

# faces
f 3/2/1 2/2/1 1/2/1
f 4/2/1 2/2/1 3/2/1
f 6/2/1 3/2/1 1/2/1
f 7/2/1 3/2/1 6/2/1
f 8/2/1 2/2/1 4/2/1
f 9/2/1 2/2/1 8/2/1
f 11/2/1 7/2/1 6/2/1
f 11/2/1 10/2/1 9/2/1
f 11/2/1 9/2/1 8/2/1
f 11/2/1 8/2/1 7/2/1
f 11/2/1 6/2/1 5/2/1
f 12/2/1 10/2/1 11/2/1
f 13/2/1 11/2/1 5/2/1
f 14/2/1 11/2/1 13/2/1
f 15/2/1 10/2/1 12/2/1
f 16/2/1 10/2/1 15/2/1
f 19/1/1 18/1/1 17/1/1
f 20/1/1 18/1/1 19/1/1
f 23/1/1 22/1/1 21/1/1
f 24/1/1 22/1/1 23/1/1
f 29/2/1 26/2/1 25/2/1
f 30/2/1 26/2/1 29/2/1
f 31/2/1 28/2/1 27/2/1
f 32/2/1 28/2/1 31/2/1
f 37/2/1 34/2/1 33/2/1
f 38/2/1 34/2/1 37/2/1
f 39/2/1 36/2/1 35/2/1
f 40/2/1 36/2/1 39/2/1
f 41/2/2 42/2/2 45/2/2
f 45/2/2 42/2/2 46/2/2
f 43/2/2 44/2/2 47/2/2
f 47/2/2 44/2/2 48/2/2
f 49/2/2 50/2/2 53/2/2
f 53/2/2 50/2/2 54/2/2
f 51/2/2 52/2/2 55/2/2
f 55/2/2 52/2/2 56/2/2
f 57/1/2 58/1/2 59/1/2
f 59/1/2 58/1/2 60/1/2
f 57/1/2 59/1/2 61/1/2
f 61/1/2 59/1/2 62/1/2
f 60/1/2 58/1/2 65/1/2
f 65/1/2 58/1/2 66/1/2
f 63/1/2 64/1/2 69/1/2
f 69/1/2 64/1/2 70/1/2
f 67/1/2 68/1/2 73/1/2
f 71/1/2 72/1/2 74/1/2
f 67/1/2 73/1/2 75/1/2
f 73/1/2 74/1/2 75/1/2
f 74/1/2 72/1/2 76/1/2
f 75/1/2 74/1/2 76/1/2
f 77/2/2 78/2/2 79/2/2
f 79/2/2 78/2/2 80/2/2
f 77/2/2 79/2/2 84/2/2
f 84/2/2 79/2/2 85/2/2
f 81/2/2 82/2/2 86/2/2
f 86/2/2 82/2/2 87/2/2
f 87/2/2 82/2/2 88/2/2
f 88/2/2 82/2/2 89/2/2
f 80/2/2 78/2/2 90/2/2
f 90/2/2 78/2/2 91/2/2
f 84/2/2 85/2/2 93/2/2
f 83/2/2 84/2/2 93/2/2
f 85/2/2 86/2/2 93/2/2
f 86/2/2 87/2/2 93/2/2
f 93/2/2 87/2/2 94/2/2
f 94/2/2 87/2/2 95/2/2
f 91/2/2 92/2/2 96/2/2
f 88/2/2 89/2/2 96/2/2
f 90/2/2 91/2/2 96/2/2
f 89/2/2 90/2/2 96/2/2
f 96/2/2 92/2/2 97/2/2
f 97/2/2 92/2/2 98/2/2
f 94/2/2 95/2/2 99/2/2
f 96/2/2 97/2/2 99/2/2
f 95/2/2 96/2/2 99/2/2
f 99/2/2 97/2/2 100/2/2
f 83/2/2 93/2/2 101/2/2
f 101/2/2 93/2/2 102/2/2
f 98/2/2 92/2/2 103/2/2
f 103/2/2 92/2/2 104/2/2
f 107/2/3 106/2/3 105/2/3
f 108/2/3 106/2/3 107/2/3
f 109/2/3 107/2/3 105/2/3
f 110/2/3 106/2/3 108/2/3
f 111/2/3 109/2/3 105/2/3
f 111/2/3 110/2/3 109/2/3
f 112/2/3 106/2/3 110/2/3
f 112/2/3 110/2/3 111/2/3
f 115/2/3 114/2/3 113/2/3
f 116/2/3 114/2/3 115/2/3
f 119/2/3 115/2/3 113/2/3
f 121/1/3 118/1/3 117/1/3
f 122/1/3 118/1/3 121/1/3
f 123/2/3 120/2/3 119/2/3
f 123/2/3 119/2/3 113/2/3
f 124/2/3 120/2/3 123/2/3
f 127/1/3 126/1/3 125/1/3
f 128/1/3 126/1/3 127/1/3
f 133/2/3 130/2/3 129/2/3
f 134/2/3 130/2/3 133/2/3
f 135/2/3 132/2/3 131/2/3
f 136/2/3 132/2/3 135/2/3
f 139/2/3 138/2/3 137/2/3
f 140/2/3 138/2/3 139/2/3
f 143/2/3 142/2/3 141/2/3
f 144/2/3 142/2/3 143/2/3
f 147/2/3 146/2/3 145/2/3
f 148/2/3 146/2/3 147/2/3
f 151/2/3 150/2/3 149/2/3
f 152/2/3 150/2/3 151/2/3
f 154/2/3 150/2/3 152/2/3
f 155/2/3 154/2/3 153/2/3
f 156/2/3 150/2/3 154/2/3
f 156/2/3 154/2/3 155/2/3
f 157/2/4 158/2/4 159/2/4
f 159/2/4 158/2/4 160/2/4
f 160/2/4 158/2/4 162/2/4
f 161/2/4 162/2/4 163/2/4
f 162/2/4 158/2/4 164/2/4
f 163/2/4 162/2/4 164/2/4
f 165/2/4 166/2/4 167/2/4
f 167/2/4 166/2/4 168/2/4
f 169/2/4 170/2/4 171/2/4
f 171/2/4 170/2/4 172/2/4
f 173/2/4 174/2/4 175/2/4
f 175/2/4 174/2/4 176/2/4
f 177/2/4 178/2/4 181/2/4
f 181/2/4 178/2/4 182/2/4
f 179/2/4 180/2/4 183/2/4
f 183/2/4 180/2/4 184/2/4
f 185/1/4 186/1/4 187/1/4
f 187/1/4 186/1/4 188/1/4
f 189/2/4 190/2/4 191/2/4
f 191/2/4 190/2/4 192/2/4
f 189/2/4 191/2/4 195/2/4
f 193/1/4 194/1/4 197/1/4
f 197/1/4 194/1/4 198/1/4
f 195/2/4 196/2/4 199/2/4
f 189/2/4 195/2/4 199/2/4
f 199/2/4 196/2/4 200/2/4
f 201/2/4 202/2/4 203/2/4
f 203/2/4 202/2/4 204/2/4
f 201/2/4 203/2/4 205/2/4
f 204/2/4 202/2/4 206/2/4
f 201/2/4 205/2/4 207/2/4
f 205/2/4 206/2/4 207/2/4
f 206/2/4 202/2/4 208/2/4
f 207/2/4 206/2/4 208/2/4
f 211/2/5 210/2/5 209/2/5
f 212/2/5 210/2/5 211/2/5
f 213/2/5 211/2/5 209/2/5
f 213/1/5 212/1/5 211/1/5
f 214/2/5 210/2/5 212/2/5
f 214/1/5 212/1/5 213/1/5
f 215/2/5 213/2/5 209/2/5
f 215/2/5 214/2/5 213/2/5
f 216/2/5 210/2/5 214/2/5
f 216/2/5 214/2/5 215/2/5
f 219/2/5 218/2/5 217/2/5
f 220/2/5 218/2/5 219/2/5
f 223/2/5 222/2/5 221/2/5
f 224/2/5 222/2/5 223/2/5
f 225/2/5 222/2/5 224/2/5
f 226/2/5 222/2/5 225/2/5
f 227/1/5 225/1/5 224/1/5
f 228/1/5 225/1/5 227/1/5
f 233/2/5 232/2/5 231/2/5
f 234/2/5 232/2/5 233/2/5
f 237/2/5 230/2/5 229/2/5
f 238/2/5 230/2/5 237/2/5
f 239/2/5 236/2/5 235/2/5
f 240/2/5 236/2/5 239/2/5
f 244/1/5 242/1/5 241/1/5
f 245/1/5 242/1/5 244/1/5
f 247/2/5 244/2/5 243/2/5
f 247/2/5 246/2/5 245/2/5
f 247/2/5 245/2/5 244/2/5
f 248/2/5 246/2/5 247/2/5
f 251/2/5 250/2/5 249/2/5
f 252/2/5 250/2/5 251/2/5
f 255/2/5 254/2/5 253/2/5
f 256/2/5 254/2/5 255/2/5
f 259/2/5 258/2/5 257/2/5
f 260/2/5 258/2/5 259/2/5
f 261/2/6 262/2/6 263/2/6
f 263/2/6 262/2/6 264/2/6
f 265/2/6 266/2/6 269/2/6
f 269/2/6 266/2/6 270/2/6
f 267/2/6 268/2/6 271/2/6
f 271/2/6 268/2/6 272/2/6
f 273/2/6 274/2/6 275/2/6
f 275/2/6 274/2/6 276/2/6
f 277/2/6 278/2/6 279/2/6
f 279/2/6 278/2/6 280/2/6
f 281/2/6 282/2/6 283/2/6
f 283/2/6 282/2/6 284/2/6
f 287/2/6 288/2/6 289/2/6
f 289/2/6 288/2/6 290/2/6
f 285/2/6 286/2/6 293/2/6
f 293/2/6 286/2/6 294/2/6
f 291/2/6 292/2/6 295/2/6
f 295/2/6 292/2/6 296/2/6
f 297/2/6 298/2/6 299/2/6
f 299/2/6 298/2/6 300/2/6
f 301/2/6 302/2/6 303/2/6
f 303/2/6 302/2/6 304/2/6
f 305/1/6 306/1/6 307/1/6
f 307/1/6 306/1/6 308/1/6
f 309/2/6 310/2/6 311/2/6
f 311/2/6 310/2/6 312/2/6
f 313/2/6 314/2/6 315/2/6
f 315/2/6 314/2/6 316/2/6
